<svg width="512" height="512" viewBox="0 0 512 512" xmlns="http://www.w3.org/2000/svg">
  <!-- Clipboard background -->
  <rect x="128" y="64" width="256" height="384" rx="16" ry="16" fill="#f0f0f0" stroke="#333" stroke-width="8"/>
  
  <!-- Clipboard clip -->
  <rect x="192" y="32" width="128" height="64" rx="8" ry="8" fill="#666" stroke="#333" stroke-width="4"/>
  <rect x="208" y="48" width="96" height="32" rx="4" ry="4" fill="#f0f0f0"/>
  
  <!-- Document lines -->
  <rect x="160" y="128" width="192" height="8" rx="4" fill="#333"/>
  <rect x="160" y="160" width="192" height="8" rx="4" fill="#333"/>
  <rect x="160" y="192" width="144" height="8" rx="4" fill="#333"/>
  <rect x="160" y="224" width="192" height="8" rx="4" fill="#333"/>
  <rect x="160" y="256" width="168" height="8" rx="4" fill="#333"/>
  
  <!-- Bridge/connection symbol -->
  <circle cx="256" cy="320" r="24" fill="#4CAF50" stroke="#333" stroke-width="4"/>
  <rect x="232" y="336" width="48" height="8" rx="4" fill="#4CAF50"/>
  <rect x="232" y="352" width="48" height="8" rx="4" fill="#4CAF50"/>
  
  <!-- WiFi/sync waves -->
  <path d="M 208 368 Q 232 348 256 368 Q 280 348 304 368" stroke="#4CAF50" stroke-width="6" fill="none"/>
  <path d="M 196 384 Q 226 356 256 384 Q 286 356 316 384" stroke="#4CAF50" stroke-width="4" fill="none"/>
</svg>
